<svg width="17" height="40" viewBox="0 0 17 40" fill="none" xmlns="http://www.w3.org/2000/svg">
<path d="M16.2847 11.3036C16.2867 12.1835 16.1802 13.0603 15.9674 13.9141C15.7634 14.7343 15.4709 15.5298 15.095 16.2868C14.0949 18.34 13.2269 20.131 12.4911 21.6599C11.7509 23.1866 11.09 24.5349 10.5084 25.6914C10.0854 26.5837 9.68885 27.3503 9.31874 27.9848C8.94864 28.6192 8.74375 29.2471 8.53227 29.7229C7.58056 31.7277 7.02541 32.86 6.86679 33.12C6.70817 33.3799 6.10455 34.618 5.05591 36.8343H16.2913V40H0C2.79783 34.3074 6.96152 25.7972 12.4911 14.4693C12.6958 13.9561 12.8528 13.4251 12.9603 12.8831C13.0711 12.364 13.1243 11.8343 13.1189 11.3036C13.1395 10.2312 12.9402 9.16607 12.5333 8.17375C12.1264 7.18142 11.5204 6.28299 10.7529 5.53387C9.99623 4.74854 9.08716 4.12599 8.08141 3.70436C7.07566 3.28274 5.9944 3.07094 4.9039 3.08192V0.00210923C6.40138 -0.0272842 7.88896 0.250808 9.27468 0.819192C10.6604 1.38758 11.9148 2.23417 12.9603 3.30663C14.0318 4.34141 14.8797 5.58499 15.4515 6.96048C16.0233 8.33597 16.3069 9.81412 16.2847 11.3036V11.3036Z" fill="white"/>
</svg>
