<svg width="14" height="40" viewBox="0 0 14 40" fill="none" xmlns="http://www.w3.org/2000/svg">
<path d="M11.393 26.5363C11.4167 25.0367 11.1328 23.5482 10.5589 22.1626C9.98502 20.777 9.13326 19.5237 8.0562 18.4801C7.01256 17.403 5.75927 16.5513 4.37367 15.9774C2.98807 15.4035 1.49956 15.1196 0 15.1433L0 13.0738C0.726911 13.0848 1.44862 12.9496 2.12229 12.6763C2.79597 12.4031 3.40789 11.9973 3.92175 11.483C4.4352 10.9685 4.84048 10.3565 5.1137 9.68296C5.38692 9.00943 5.52255 8.28801 5.5126 7.56124C5.52558 6.84197 5.39112 6.12766 5.11752 5.46233C4.84392 4.79699 4.43697 4.19474 3.92175 3.69267C3.40582 3.18242 2.79313 2.78041 2.11966 2.51026C1.44619 2.24011 0.725527 2.10727 0 2.11954L0 0.00135312C1.00465 -0.0179127 2.00261 0.168731 2.93239 0.549788C3.86217 0.930846 4.70408 1.49825 5.40625 2.21703C6.12141 2.9108 6.68694 3.74367 7.068 4.6643C7.44905 5.58494 7.63757 6.57385 7.62193 7.5701C7.63988 8.80877 7.3344 10.0307 6.73566 11.1152C6.16357 12.1744 5.36828 13.0967 4.40476 13.8183C7.03669 14.6881 9.32102 16.3777 10.9233 18.6396C12.6134 20.9221 13.507 23.6965 13.4669 26.5363C13.4717 27.8094 13.2926 29.0766 12.9351 30.2985C12.5939 31.473 12.0945 32.5955 11.4506 33.6353C10.252 35.5437 8.60237 37.128 6.64703 38.2484C4.63208 39.4262 2.33373 40.0314 0 39.9987L0 37.8761C1.49493 37.9007 2.97937 37.6225 4.36391 37.0582C5.74845 36.4939 7.00443 35.6551 8.0562 34.5925C9.13262 33.5484 9.98397 32.295 10.5578 30.9095C11.1317 29.524 11.4159 28.0357 11.393 26.5363Z" fill="white"/>
</svg>
