<svg width="303" height="50" viewBox="0 0 303 50" fill="none" xmlns="http://www.w3.org/2000/svg">
<g clip-path="url(#clip0_102_116)">
<path d="M18.6377 0C22.6598 11.3895 29.0046 27.7904 37.3321 50H33.9897L30.0243 39.3508H7.36444L3.39897 50H0L16.9949 4.44191C16.9949 4.10023 17.3348 3.64465 17.5614 2.96128C17.788 2.2779 18.1845 1.36674 18.6377 0ZM8.61073 35.877H28.6647L18.6377 9.05467C16.4473 15.0532 13.1049 23.9939 8.61073 35.877Z" fill="white"/>
<path d="M84.5211 40.3759V0H87.9201V50L53.9304 9.73804V50H50.5314V0C58.1224 8.99772 69.4524 22.4563 84.5211 40.3759Z" fill="white"/>
<path d="M138.565 24.943H150.914C150.925 27.316 150.582 29.6772 149.895 31.9475C149.328 34.1321 148.451 36.2229 147.289 38.1548C145.106 41.725 142.042 44.6676 138.395 46.697C135.487 48.4028 132.26 49.4857 128.916 49.8777C125.572 50.2697 122.184 49.9623 118.964 48.9749C116.789 48.3589 114.71 47.4387 112.789 46.2414C109.263 44.0159 106.343 40.9433 104.292 37.3006C102.136 33.5454 101.021 29.2782 101.063 24.943C101.019 22.5946 101.324 20.2529 101.969 17.9954C102.532 15.7909 103.451 13.694 104.688 11.7881C106.966 8.21489 110.102 5.27688 113.809 3.24593C117.521 1.07334 121.75 -0.0483482 126.045 -8.11652e-05C129.449 -0.0664861 132.828 0.593436 135.959 1.93614C138.95 3.28996 141.646 5.22537 143.89 7.6309L143.267 8.20038L141.511 10.0227C139.483 7.951 137.079 6.28861 134.429 5.1252C131.783 3.97604 128.928 3.39418 126.045 3.41678C124.032 3.41287 122.029 3.70056 120.097 4.27099C118.198 4.77694 116.384 5.56382 114.715 6.60584C111.766 8.5733 109.336 11.231 107.634 14.3507C105.768 17.5619 104.808 21.2241 104.858 24.943C104.851 26.9858 105.137 29.019 105.708 30.9794C106.256 32.882 107.056 34.7018 108.087 36.3894C109.97 39.4697 112.602 42.0174 115.735 43.7926C118.95 45.6682 122.611 46.6326 126.329 46.5831C128.144 46.5912 129.953 46.3615 131.71 45.8997C133.434 45.4593 135.092 44.7889 136.639 43.9065C139.472 42.327 141.906 40.1138 143.753 37.4378C145.6 34.7618 146.809 31.6947 147.289 28.4737H138.565V24.943Z" fill="white"/>
<path d="M201.389 0V3.41686H167.399V35.877H182.638V39.3508H167.569V46.5831H201.559V50H164.284V0H201.389Z" fill="white"/>
<path d="M218.157 0V46.5831H239.628V50H214.758V0H218.157Z" fill="white"/>
<path d="M277.583 3.69732e-05C282.202 0.0460997 286.723 1.34461 290.669 3.75858C294.22 5.95298 297.148 9.03281 299.166 12.6994C300.833 15.5814 301.895 18.7766 302.284 22.0873C302.674 25.3981 302.384 28.7541 301.432 31.9476C300.83 34.1385 299.914 36.2295 298.713 38.1549C296.593 41.6966 293.61 44.6365 290.046 46.6971C286.276 48.9381 281.961 50.0816 277.583 50C273.279 50.0573 269.043 48.9139 265.347 46.6971C261.776 44.6244 258.778 41.6882 256.622 38.1549C255.421 36.2295 254.505 34.1385 253.903 31.9476C252.62 27.3864 252.62 22.5567 253.903 17.9955C254.516 15.8086 255.431 13.7191 256.622 11.7882C258.874 8.25418 261.945 5.32278 265.573 3.24605C269.219 1.11286 273.364 -0.00741877 277.583 3.69732e-05ZM277.583 46.5832C279.699 46.5496 281.798 46.2043 283.814 45.5581C285.598 45.0309 287.31 44.2849 288.913 43.3372C291.963 41.4272 294.494 38.7854 296.277 35.6492C297.682 33.1352 298.576 30.3653 298.907 27.5008C299.238 24.6363 298.998 21.7343 298.203 18.9636C297.675 17.0812 296.894 15.2802 295.881 13.6105C293.959 10.5418 291.312 7.99851 288.176 6.20733C283.224 3.42853 277.379 2.73246 271.918 4.27111C269.917 4.73795 268.004 5.52637 266.253 6.60596C263.2 8.53747 260.67 11.1981 258.888 14.3508C257.022 17.562 256.062 21.2243 256.113 24.9431C256.105 26.9859 256.391 29.0191 256.962 30.9795C257.466 32.8886 258.248 34.7119 259.285 36.3896C261.168 39.4698 263.8 42.0175 266.933 43.7927C270.171 45.6625 273.849 46.6261 277.583 46.5832Z" fill="white"/>
</g>
<defs>
<clipPath id="clip0_102_116">
<rect width="302.679" height="50" fill="white"/>
</clipPath>
</defs>
</svg>
