<svg width="251" height="203" viewBox="0 0 251 203" fill="none" xmlns="http://www.w3.org/2000/svg">
<g filter="url(#filter0_dd_105_14)">
<path d="M107.138 89.6376C107.138 90.5694 106.269 91.7082 104.532 93.0541C101.962 95.0514 99.0962 96.6405 96.0359 97.7647C93.208 98.9539 90.1907 99.6374 87.1233 99.7835C82.883 99.9141 78.681 98.951 74.927 96.9882C74.8164 104.355 73.8545 111.684 72.0604 118.833C70.4042 126.268 67.6929 133.431 64.0077 140.108C60.6199 146.009 56.8932 148.96 52.8278 148.96C48.2759 148.96 46 146.475 46 141.506C46 135.398 49.2836 126.261 55.8508 114.096C62.851 101.208 70.6855 88.7844 79.3052 76.9035C86.5379 66.6147 94.5717 56.905 103.333 47.8635C104.128 46.8779 105.259 46.2151 106.512 46C106.935 46.0018 107.346 46.1379 107.685 46.3882C107.867 46.5216 108.012 46.6981 108.108 46.9015C108.203 47.1049 108.246 47.3289 108.232 47.5529C108.005 48.9029 107.281 50.1207 106.2 50.9694C100.901 56.4112 95.9405 62.1677 91.3451 68.2071C85.6118 75.5576 80.0349 83.3224 74.6143 91.5012L74.927 91.6565C76.7115 93.0073 78.7233 94.0327 80.8688 94.6847C82.915 95.1824 85.0169 95.4172 87.1233 95.3835C89.647 95.2478 92.1304 94.6967 94.4723 93.7529C97.2358 92.8068 99.8241 91.4165 102.134 89.6376C103.043 88.799 104.189 88.257 105.418 88.0847C106.564 88.0847 107.138 88.6024 107.138 89.6376ZM60.6981 137.158C63.4797 131.386 65.5533 125.303 66.8744 119.04C68.41 112.381 69.4293 105.614 69.9234 98.8C64.6967 106.92 59.9711 115.347 55.7726 124.035C52.1763 131.645 50.3781 137.468 50.3781 141.506C50.3781 143.576 51.16 144.612 52.7236 144.612C55.5381 144.612 58.1963 142.127 60.6981 137.158Z" fill="white"/>
</g>
<g filter="url(#filter1_dd_105_14)">
<path d="M148.574 89.638C148.574 90.4663 147.705 91.6051 145.968 93.0545C132.833 104.339 123.608 109.982 118.292 109.982C117.602 109.999 116.916 109.878 116.276 109.624C115.635 109.37 115.054 108.989 114.566 108.505C114.079 108.021 113.695 107.443 113.44 106.807C113.184 106.171 113.062 105.49 113.079 104.805C113.128 102.299 113.416 99.803 113.939 97.351C114.513 94.4521 114.695 93.0027 114.487 93.0027C113.286 93.583 112.165 94.3136 111.151 95.1768C108.753 96.7298 106.695 97.9463 104.975 98.8263C103.613 99.605 102.087 100.057 100.518 100.146C100.13 100.182 99.7394 100.13 99.3741 99.9961C99.0088 99.8617 98.6785 99.6477 98.4075 99.3698C97.9227 98.8104 97.671 98.0883 97.7038 97.351C97.9144 94.9983 98.9906 92.8052 100.727 91.191C102.929 88.8635 105.488 86.8979 108.31 85.3674C110.623 83.9451 113.257 83.1179 115.972 82.9604C116.645 82.9182 117.319 83.0292 117.942 83.2849C118.565 83.5406 119.122 83.9342 119.568 84.4357C120.361 85.3105 120.806 86.4423 120.819 87.6192C120.846 88.2476 120.682 88.8695 120.35 89.4051C120.243 89.605 120.087 89.7742 119.895 89.8966C119.703 90.019 119.483 90.0904 119.256 90.1039C119.387 90.6634 119.439 91.2383 119.412 91.8121C119.331 94.2278 118.964 96.6255 118.318 98.9557C118.213 99.7839 118.057 100.647 117.849 101.544C117.651 102.393 117.547 103.261 117.536 104.132C117.536 105.064 117.901 105.53 118.63 105.53C122.279 105.53 130.566 100.198 143.492 89.5345C144.445 88.6697 145.649 88.1261 146.932 87.9815C147.16 87.9314 147.398 87.9397 147.622 88.0057C147.846 88.0717 148.05 88.1931 148.214 88.3587C148.378 88.5243 148.497 88.7285 148.56 88.9523C148.623 89.176 148.628 89.412 148.574 89.638ZM107.607 92.8992C112.298 89.8968 115.216 88.3957 116.363 88.3957C116.735 88.3691 117.108 88.422 117.458 88.551V88.3957C117.249 87.4639 116.78 86.998 116.05 86.998C114.333 87.1771 112.677 87.7342 111.203 88.6286C109.227 89.6443 107.366 90.8678 105.652 92.278C104.036 93.6239 103.229 94.6592 103.229 95.3839C104.764 94.6953 106.23 93.8634 107.607 92.8992Z" fill="white"/>
</g>
<g filter="url(#filter2_dd_105_14)">
<path d="M196.89 89.6375C196.89 90.3622 196.021 91.501 194.284 93.0539C188.523 98.2099 182.203 102.715 175.442 106.487C168.093 110.68 161.552 114.07 155.818 116.659C156.194 120.964 155.288 125.284 153.212 129.082C151.128 133.232 148.231 136.928 144.691 139.953C142.262 142.419 139.048 143.973 135.596 144.353C134.133 144.428 132.7 143.925 131.608 142.955C131.104 142.445 130.712 141.837 130.456 141.168C130.201 140.5 130.087 139.787 130.123 139.073C130.123 135.622 131.973 131.377 135.674 126.339C140.646 119.867 145.943 113.647 151.545 107.703L152.952 106.15C150.257 107.82 147.203 108.831 144.039 109.101C143.128 109.145 142.217 109.01 141.358 108.703C140.499 108.397 139.71 107.925 139.036 107.315C138.398 106.665 137.906 105.889 137.592 105.037C137.278 104.185 137.148 103.277 137.211 102.372C137.453 97.9942 139.385 93.8781 142.606 90.8798C146.288 86.9891 150.638 83.7813 155.454 81.4069C159.31 79.2309 163.614 77.9563 168.041 77.6798C168.747 77.6447 169.453 77.7526 170.115 77.997C170.778 78.2414 171.384 78.6171 171.896 79.1013C172.408 79.5856 172.815 80.1681 173.093 80.8137C173.371 81.4592 173.514 82.1542 173.513 82.8563C173.553 83.3293 173.49 83.8051 173.328 84.2517C173.166 84.6982 172.909 85.105 172.575 85.4445C171.985 86.0013 171.2 86.3077 170.386 86.2986C169.936 86.3205 169.493 86.1829 169.135 85.9104C168.939 85.8038 168.774 85.6466 168.66 85.4554C168.545 85.2642 168.484 85.0459 168.484 84.8233C168.487 84.4988 168.568 84.1796 168.718 83.8916C168.854 83.6533 168.934 83.388 168.953 83.1151C168.953 82.3904 168.484 82.0281 167.546 82.0281C163.711 82.2767 160.001 83.4782 156.757 85.5222C152.752 87.7244 149.113 90.5268 145.968 93.8304C143.45 96.0271 141.836 99.0677 141.433 102.372C141.433 103.925 142.302 104.701 144.039 104.701C147.469 104.367 150.741 103.104 153.499 101.052C157.426 98.5201 161.069 95.5787 164.366 92.2775C164.64 91.9605 164.974 91.7011 165.35 91.5144C165.726 91.3277 166.136 91.2176 166.555 91.1904C166.859 91.1884 167.159 91.2576 167.431 91.3926C167.703 91.5275 167.938 91.7243 168.119 91.9669C168.529 92.4425 168.751 93.0493 168.744 93.6751C168.737 94.1859 168.649 94.6924 168.484 95.1763C167.04 97.4186 165.391 99.5239 163.558 101.466C161.074 104.175 159.415 105.926 158.581 106.72L154.828 110.706L152.014 113.553C160.249 109.929 167.65 106.306 174.217 102.682C180.664 99.1747 186.607 94.8219 191.886 89.741C192.797 88.8142 194.024 88.2601 195.326 88.1881C195.529 88.1608 195.735 88.1786 195.93 88.2403C196.125 88.3019 196.304 88.4059 196.454 88.5446C196.603 88.6833 196.72 88.8533 196.796 89.0423C196.871 89.2313 196.903 89.4346 196.89 89.6375ZM141.772 136.226C144.451 133.63 146.718 130.645 148.496 127.374C150.271 124.434 151.266 121.094 151.388 117.668C151.394 116.666 151.235 115.669 150.919 114.717C145.707 120.515 141.668 125.355 138.801 129.237C136.489 131.913 135.029 135.21 134.605 138.71C134.605 139.539 135.074 139.953 136.013 139.953C137.298 139.953 139.218 138.736 141.772 136.303V136.226Z" fill="white"/>
</g>
<defs>
<filter id="filter0_dd_105_14" x="0" y="0" width="162.235" height="202.96" filterUnits="userSpaceOnUse" color-interpolation-filters="sRGB">
<feFlood flood-opacity="0" result="BackgroundImageFix"/>
<feColorMatrix in="SourceAlpha" type="matrix" values="0 0 0 0 0 0 0 0 0 0 0 0 0 0 0 0 0 0 127 0" result="hardAlpha"/>
<feOffset dx="2" dy="2"/>
<feGaussianBlur stdDeviation="20"/>
<feComposite in2="hardAlpha" operator="out"/>
<feColorMatrix type="matrix" values="0 0 0 0 1 0 0 0 0 1 0 0 0 0 1 0 0 0 0.25 0"/>
<feBlend mode="normal" in2="BackgroundImageFix" result="effect1_dropShadow_105_14"/>
<feColorMatrix in="SourceAlpha" type="matrix" values="0 0 0 0 0 0 0 0 0 0 0 0 0 0 0 0 0 0 127 0" result="hardAlpha"/>
<feOffset dx="4" dy="4"/>
<feGaussianBlur stdDeviation="25"/>
<feComposite in2="hardAlpha" operator="out"/>
<feColorMatrix type="matrix" values="0 0 0 0 1 0 0 0 0 0.337255 0 0 0 0 0.964706 0 0 0 1 0"/>
<feBlend mode="normal" in2="effect1_dropShadow_105_14" result="effect2_dropShadow_105_14"/>
<feBlend mode="normal" in="SourceGraphic" in2="effect2_dropShadow_105_14" result="shape"/>
</filter>
<filter id="filter1_dd_105_14" x="51.701" y="36.9517" width="150.91" height="127.032" filterUnits="userSpaceOnUse" color-interpolation-filters="sRGB">
<feFlood flood-opacity="0" result="BackgroundImageFix"/>
<feColorMatrix in="SourceAlpha" type="matrix" values="0 0 0 0 0 0 0 0 0 0 0 0 0 0 0 0 0 0 127 0" result="hardAlpha"/>
<feOffset dx="2" dy="2"/>
<feGaussianBlur stdDeviation="20"/>
<feComposite in2="hardAlpha" operator="out"/>
<feColorMatrix type="matrix" values="0 0 0 0 1 0 0 0 0 1 0 0 0 0 1 0 0 0 0.25 0"/>
<feBlend mode="normal" in2="BackgroundImageFix" result="effect1_dropShadow_105_14"/>
<feColorMatrix in="SourceAlpha" type="matrix" values="0 0 0 0 0 0 0 0 0 0 0 0 0 0 0 0 0 0 127 0" result="hardAlpha"/>
<feOffset dx="4" dy="4"/>
<feGaussianBlur stdDeviation="25"/>
<feComposite in2="hardAlpha" operator="out"/>
<feColorMatrix type="matrix" values="0 0 0 0 1 0 0 0 0 0.337255 0 0 0 0 0.964706 0 0 0 1 0"/>
<feBlend mode="normal" in2="effect1_dropShadow_105_14" result="effect2_dropShadow_105_14"/>
<feBlend mode="normal" in="SourceGraphic" in2="effect2_dropShadow_105_14" result="shape"/>
</filter>
<filter id="filter2_dd_105_14" x="84.1165" y="31.6733" width="166.776" height="166.687" filterUnits="userSpaceOnUse" color-interpolation-filters="sRGB">
<feFlood flood-opacity="0" result="BackgroundImageFix"/>
<feColorMatrix in="SourceAlpha" type="matrix" values="0 0 0 0 0 0 0 0 0 0 0 0 0 0 0 0 0 0 127 0" result="hardAlpha"/>
<feOffset dx="2" dy="2"/>
<feGaussianBlur stdDeviation="20"/>
<feComposite in2="hardAlpha" operator="out"/>
<feColorMatrix type="matrix" values="0 0 0 0 1 0 0 0 0 1 0 0 0 0 1 0 0 0 0.25 0"/>
<feBlend mode="normal" in2="BackgroundImageFix" result="effect1_dropShadow_105_14"/>
<feColorMatrix in="SourceAlpha" type="matrix" values="0 0 0 0 0 0 0 0 0 0 0 0 0 0 0 0 0 0 127 0" result="hardAlpha"/>
<feOffset dx="4" dy="4"/>
<feGaussianBlur stdDeviation="25"/>
<feComposite in2="hardAlpha" operator="out"/>
<feColorMatrix type="matrix" values="0 0 0 0 1 0 0 0 0 0.337255 0 0 0 0 0.964706 0 0 0 1 0"/>
<feBlend mode="normal" in2="effect1_dropShadow_105_14" result="effect2_dropShadow_105_14"/>
<feBlend mode="normal" in="SourceGraphic" in2="effect2_dropShadow_105_14" result="shape"/>
</filter>
</defs>
</svg>
