<svg width="247" height="30" viewBox="0 0 247 30" fill="none" xmlns="http://www.w3.org/2000/svg">
<g clip-path="url(#clip0_102_19)">
<path d="M22.4329 0V2.05011H2.04867V21.5262H11.2335V23.6105H2.04867V30H0V0H22.4329Z" fill="white"/>
<path d="M32.5055 0V30H30.4569V0H32.5055Z" fill="white"/>
<path d="M62.9966 10.7631C62.9906 11.7813 62.8411 12.7935 62.5527 13.7699C62.2722 14.7119 61.8826 15.6179 61.3918 16.4693C60.4237 17.9853 59.0989 19.2406 57.5334 20.1253C55.919 21.0701 54.0769 21.5546 52.2069 21.5262H51.7289C52.5484 23.4397 53.8117 26.2415 55.4848 30H53.2312L49.4071 21.5262H42.5782V30H40.5295V1.44313e-05H52.2411C53.2569 -0.00508909 54.2684 0.13294 55.2458 0.410037C57.8847 1.2239 60.1098 3.02232 61.4601 5.43282C62.4318 7.04341 62.9618 8.88203 62.9966 10.7631ZM42.5099 19.5103H52.1728C53.3192 19.552 54.4621 19.3583 55.5309 18.9411C56.5997 18.5238 57.5717 17.8919 58.3871 17.0843C59.2145 16.284 59.8688 15.322 60.3093 14.2582C60.7498 13.1943 60.9672 12.0512 60.9479 10.8998C60.9645 9.75381 60.7458 8.61662 60.3053 7.55868C59.8648 6.50074 59.2119 5.54458 58.3871 4.74944C57.5992 3.89666 56.6432 3.21652 55.5795 2.75193C54.5159 2.28734 53.3675 2.04838 52.2069 2.05013H42.544V19.5103H42.5099Z" fill="white"/>
<path d="M73.8887 3.10934C74.1784 2.48356 74.5905 1.92227 75.1008 1.45863C75.611 0.994997 76.2089 0.638434 76.8592 0.410023C77.3873 0.17237 77.9543 0.0334078 78.5323 0C79.2833 0.00280292 80.0221 0.190559 80.6834 0.546697L80.0347 1.94761L79.8639 2.42597C79.0729 2.12051 78.1966 2.12051 77.4055 2.42597C77.0195 2.56728 76.6662 2.7855 76.3669 3.0674C76.0676 3.3493 75.8285 3.68904 75.6642 4.06606C75.4958 4.44825 75.4088 4.86136 75.4088 5.27904C75.4088 5.69673 75.4958 6.10984 75.6642 6.49203C75.8049 6.88271 76.0225 7.24121 76.304 7.54637C76.5855 7.85153 76.9252 8.09717 77.3031 8.26879L79.3859 9.15718L80.103 9.43052C80.9994 9.88868 81.8461 10.4383 82.6297 11.0706C84.7213 12.9628 86.0255 15.5729 86.2831 18.3827C86.2831 18.6902 86.2831 18.9977 86.2831 19.2711C86.3 20.801 85.9855 22.3164 85.3612 23.713C84.6254 25.4074 83.4457 26.8713 81.9468 27.9499C80.4842 28.9955 78.781 29.6537 76.9958 29.8633C76.564 29.8985 76.1301 29.8985 75.6983 29.8633C74.1293 29.8157 72.5855 29.4556 71.1571 28.8041L71.8059 27.4374L72.0449 26.959C73.0428 27.4629 74.1336 27.7563 75.2496 27.821C76.3656 27.8857 77.4829 27.7202 78.5323 27.3349C79.6178 26.9567 80.6169 26.3656 81.4712 25.5962C82.3255 24.8268 83.0178 23.8945 83.5075 22.8539C83.9972 21.8134 84.2744 20.6855 84.323 19.5364C84.3717 18.3873 84.1906 17.24 83.7906 16.1617C83.4036 15.0727 82.798 14.0744 82.0112 13.2282C81.2244 12.3821 80.2729 11.706 79.2152 11.2415L77.1324 10.2506H76.4154C75.7953 9.96738 75.2394 9.56079 74.7815 9.05559C74.3236 8.55039 73.9734 7.95716 73.7521 7.31207C73.47 6.64328 73.3362 5.92125 73.3597 5.19572C73.3833 4.47018 73.5638 3.75838 73.8887 3.10934Z" fill="white"/>
<path d="M116.808 2.05011H106.565V30H104.482V2.05011H94.2388V0H116.74L116.808 2.05011Z" fill="white"/>
<path d="M132.31 2.81543e-05C133.756 -0.0173231 135.196 0.190161 136.578 0.615062C137.892 0.978029 139.145 1.53053 140.3 2.25515C142.44 3.57179 144.205 5.41969 145.421 7.61962C146.746 9.83864 147.431 12.3812 147.402 14.9659C147.43 17.5719 146.745 20.136 145.421 22.3804C144.205 24.5804 142.44 26.4283 140.3 27.7449C139.145 28.4695 137.892 29.022 136.578 29.385C135.228 29.7995 133.824 30.0069 132.412 30H124.901V2.81543e-05H132.412H132.31ZM132.31 27.9499C133.539 27.9167 134.758 27.7096 135.929 27.3349C137.056 26.9969 138.135 26.5145 139.139 25.8998C140.986 24.7641 142.513 23.1767 143.578 21.287C144.707 19.337 145.285 17.1167 145.251 14.8634C145.237 13.7063 145.065 12.5566 144.738 11.4465C144.448 10.297 143.999 9.19316 143.407 8.16632C142.249 6.32507 140.653 4.79911 138.763 3.7244C136.804 2.59024 134.573 2.01144 132.31 2.05014H126.847V27.9499H132.31Z" fill="white"/>
<path d="M177.79 10.7631C177.784 11.7813 177.635 12.7935 177.346 13.7699C177.081 14.7172 176.69 15.6249 176.186 16.4693C175.217 17.9853 173.893 19.2406 172.327 20.1253C170.713 21.0701 168.871 21.5546 167.001 21.5262H166.523C167.376 23.4397 168.605 26.2415 170.313 30H168.025L164.201 21.5262H157.372V30H155.323V1.44313e-05H167.035C168.051 -0.00508909 169.062 0.13294 170.04 0.410037C170.99 0.681545 171.898 1.08404 172.737 1.60594C174.253 2.57024 175.517 3.8821 176.425 5.43282C177.337 7.05996 177.807 8.89755 177.79 10.7631ZM157.304 19.5103H166.967C168.113 19.552 169.256 19.3583 170.325 18.9411C171.393 18.5238 172.365 17.8919 173.181 17.0843C174.008 16.284 174.663 15.322 175.103 14.2582C175.544 13.1943 175.761 12.0512 175.742 10.8998C175.758 9.75381 175.54 8.61662 175.099 7.55868C174.659 6.50074 174.006 5.54458 173.181 4.74944C172.393 3.89666 171.437 3.21652 170.373 2.75193C169.31 2.28734 168.161 2.04838 167.001 2.05013H157.338V19.5103H157.304Z" fill="white"/>
<path d="M200.77 4.32576e-06C202.158 4.32576e-06 203.539 0.207297 204.867 0.615039C206.18 0.978005 207.434 1.5305 208.589 2.25513C210.729 3.57177 212.494 5.41967 213.71 7.6196C215.035 9.83862 215.72 12.3812 215.691 14.9658C215.708 16.3879 215.513 17.8046 215.11 19.1686C214.747 20.4831 214.195 21.7377 213.471 22.8929C212.203 25.0137 210.417 26.7773 208.281 28.0182C206.04 29.3171 203.496 30.0011 200.906 30.0011C198.316 30.0011 195.772 29.3171 193.531 28.0182C191.333 26.8006 189.486 25.0351 188.17 22.8929C187.446 21.7377 186.894 20.4831 186.531 19.1686C185.712 16.4383 185.712 13.5275 186.531 10.7973C186.901 9.48514 187.452 8.23143 188.17 7.0729C189.466 4.96244 191.26 3.20254 193.394 1.94761C195.634 0.64878 198.181 -0.0238816 200.77 4.32576e-06ZM200.77 27.9499C203.059 27.9485 205.307 27.3408 207.286 26.1886C209.265 25.0364 210.904 23.3806 212.037 21.3895C213.166 19.4395 213.744 17.2192 213.71 14.9658C213.697 13.8088 213.524 12.6591 213.198 11.549C212.863 10.3549 212.357 9.21559 211.696 8.16629C210.538 6.32505 208.942 4.79909 207.052 3.72438C205.144 2.6168 202.975 2.03882 200.77 2.05012C199.613 2.06379 198.464 2.23624 197.355 2.56265C196.151 2.84989 194.999 3.32249 193.941 3.96356C192.101 5.12247 190.576 6.71886 189.502 8.61048C188.365 10.5338 187.775 12.7313 187.795 14.9658C187.79 16.1915 187.962 17.4114 188.307 18.5877C188.61 19.7331 189.082 20.8271 189.707 21.8337C190.861 23.6664 192.443 25.1908 194.316 26.2756C196.278 27.4034 198.507 27.9818 200.77 27.9499Z" fill="white"/>
<path d="M235.597 -3.5431e-05C237.465 -0.0148575 239.304 0.468695 240.923 1.40088C242.498 2.2882 243.825 3.55709 244.782 5.09108C245.293 5.91976 245.684 6.81716 245.943 7.75623C246.229 8.73322 246.378 9.7451 246.387 10.7631C246.338 11.7516 246.154 12.7288 245.84 13.6674C245.575 14.6147 245.184 15.5224 244.679 16.3667C243.711 17.8827 242.387 19.1381 240.821 20.0227C239.247 20.9855 237.442 21.505 235.597 21.5262H225.797V30H223.749V-3.5431e-05H235.597ZM235.597 19.5102C236.715 19.5288 237.825 19.3237 238.863 18.9071C239.901 18.4906 240.845 17.8708 241.64 17.0842C242.468 16.2839 243.122 15.322 243.563 14.2581C244.003 13.1943 244.221 12.0512 244.201 10.8997C244.218 9.75376 243.999 8.61657 243.559 7.55863C243.118 6.50069 242.465 5.54453 241.64 4.74939C240.868 3.91335 239.934 3.24299 238.896 2.77898C237.857 2.31497 236.734 2.06699 235.597 2.05008H225.797V19.5102H235.597Z" fill="white"/>
</g>
<defs>
<clipPath id="clip0_102_19">
<rect width="246.25" height="30" fill="white"/>
</clipPath>
</defs>
</svg>
