<svg width="173" height="50" viewBox="0 0 173 50" fill="none" xmlns="http://www.w3.org/2000/svg">
<g clip-path="url(#clip0_102_126)">
<path d="M3.41764 0V46.5938H25.0627V50.0114H0V0H3.41764Z" fill="white"/>
<path d="M72.4197 0H75.8943V31.2372C75.9139 33.0015 75.676 34.7592 75.188 36.4548C73.834 41.1519 70.693 45.1313 66.4388 47.5393C63.6147 49.1592 60.4157 50.0116 57.1599 50.0116C53.9042 50.0116 50.7052 49.1592 47.8811 47.5393C43.6152 45.1422 40.4672 41.159 39.1205 36.4548C38.6222 34.7645 38.3728 33.0107 38.38 31.2486V0H41.7977V31.2372C41.7961 32.6826 41.9994 34.1209 42.4015 35.5092C42.7861 36.8566 43.3698 38.1391 44.1331 39.3142C45.4774 41.5129 47.3643 43.3292 49.6127 44.5887C51.8979 45.9293 54.505 46.6224 57.1543 46.5938C58.5996 46.5945 60.0378 46.3913 61.4263 45.99C62.7728 45.6029 64.055 45.0195 65.2313 44.2584C67.4235 42.89 69.234 40.9893 70.4944 38.7332C71.8304 36.4466 72.5196 33.8397 72.488 31.1916C72.488 24.2804 72.4653 13.8832 72.4197 0Z" fill="white"/>
<path d="M92.6521 0V50H89.2345V0H92.6521Z" fill="white"/>
<path d="M143.541 24.9602H155.958C155.97 27.3359 155.632 29.7005 154.956 31.9778C154.354 34.1703 153.433 36.2623 152.221 38.1865C150.008 41.7243 146.946 44.6534 143.313 46.7078C139.585 48.8968 135.333 50.0346 131.009 50.0001C128.638 50.0075 126.278 49.6698 124.003 48.9976C121.813 48.3883 119.722 47.4675 117.794 46.2635C114.238 44.0461 111.299 40.966 109.25 37.3093C107.064 33.5643 105.934 29.2965 105.981 24.9602C105.971 22.6108 106.309 20.2729 106.983 18.0224C107.585 15.8299 108.506 13.7379 109.717 11.8137C111.938 8.26333 115.012 5.32586 118.66 3.26964C122.407 1.08855 126.674 -0.040997 131.009 0.000106493C134.353 -0.0148257 137.666 0.643822 140.75 1.93677C143.724 3.22419 146.429 5.0599 148.724 7.34802L148.098 7.97459L146.298 9.77454C144.331 7.83319 142.011 6.28639 139.462 5.2177C134.906 3.25774 129.809 2.95149 125.051 4.35189C123.14 4.83451 121.309 5.59445 119.617 6.60753C116.539 8.52824 113.992 11.1921 112.212 14.3542C110.324 17.5682 109.34 21.2328 109.364 24.9602C109.354 26.997 109.646 29.0241 110.23 30.9753C110.778 32.8776 111.587 34.6949 112.634 36.3751C114.512 39.4628 117.152 42.0164 120.301 43.7914C123.553 45.6734 127.252 46.6417 131.009 46.5939C134.633 46.6275 138.201 45.704 141.353 43.9167C144.228 42.3804 146.699 40.1867 148.565 37.5143C150.517 34.8166 151.798 31.6923 152.301 28.4007H143.541V24.9602Z" fill="white"/>
<path d="M172.75 0V50H169.332V0H172.75Z" fill="white"/>
</g>
<defs>
<clipPath id="clip0_102_126">
<rect width="172.75" height="50" fill="white"/>
</clipPath>
</defs>
</svg>
