<svg width="184" height="25" viewBox="0 0 184 25" fill="none" xmlns="http://www.w3.org/2000/svg">
<g clip-path="url(#clip0_6_336)">
<path d="M18.7048 8.98278C18.7068 9.83001 18.5851 10.6729 18.3436 11.4848C18.1304 12.2729 17.8092 13.0275 17.3892 13.7271C16.593 14.9996 15.4946 16.0542 14.1922 16.7965C12.8475 17.5739 11.3203 17.9774 9.76824 17.9655H9.36604C10.0522 19.5515 11.0952 21.9009 12.4949 25.0136H10.5726C9.88639 23.455 8.83207 21.1056 7.40967 17.9655H1.71098V25.0136H0.0136414V0.00683985H9.75459C10.5974 0.00607028 11.4366 0.118727 12.2495 0.341807C13.0318 0.58106 13.7808 0.918701 14.4785 1.34671C15.744 2.14638 16.7949 3.24481 17.5392 4.54601C18.3125 5.89536 18.7147 7.42648 18.7048 8.98278ZM1.71098 16.2564H9.75459C10.7089 16.2701 11.6559 16.088 12.5374 15.7212C13.4189 15.3544 14.2164 14.8107 14.8807 14.1235C16.2344 12.7625 16.9946 10.9187 16.9946 8.99638C16.9946 7.07407 16.2344 5.23022 14.8807 3.86923C14.2167 3.18116 13.4195 2.63645 12.538 2.2685C11.6565 1.90054 10.7093 1.71711 9.75459 1.72949H1.71098V16.2838V16.2564Z" fill="white"/>
<path d="M37.8391 4.40576e-05C39.0119 -0.00256201 40.1787 0.167883 41.302 0.505917C42.3944 0.808373 43.4369 1.26897 44.3967 1.87316C46.167 2.98309 47.6318 4.52013 48.6571 6.34398C49.4818 7.79327 50.007 9.39433 50.2014 11.0515C50.3958 12.7088 50.2555 14.3883 49.7887 15.9899C49.4855 17.0849 49.0263 18.1301 48.4254 19.0935C47.3199 20.8723 45.784 22.3421 43.9605 23.3661C42.0932 24.4402 39.9781 25.0053 37.8255 25.0053C35.6729 25.0053 33.5578 24.4402 31.6905 23.3661C29.867 22.3421 28.3311 20.8723 27.2256 19.0935C26.6247 18.1301 26.1655 17.0849 25.8623 15.9899C25.1988 13.7132 25.1988 11.2936 25.8623 9.01696C26.1655 7.92204 26.6247 6.87669 27.2256 5.9133C28.3311 4.13447 29.867 2.66474 31.6905 1.64067C33.5545 0.546562 35.6794 -0.0203677 37.8391 4.40576e-05ZM37.8391 23.3046C38.8527 23.307 39.861 23.1595 40.8317 22.8671C41.7692 22.586 42.6654 22.1814 43.4969 21.6639C45.0368 20.7255 46.3093 19.4046 47.1915 17.8288C48.1166 16.2045 48.5876 14.36 48.5549 12.4897C48.5561 11.4716 48.4115 10.4587 48.1255 9.48186C47.864 8.54255 47.4716 7.64496 46.9598 6.81572C46.0029 5.27409 44.6735 3.99962 43.0948 3.11047C41.4907 2.17061 39.6628 1.68401 37.8051 1.70225C36.7893 1.70036 35.7788 1.84777 34.8057 2.13978C33.8441 2.39186 32.9252 2.7858 32.0791 3.30874C30.5451 4.2694 29.2751 5.59954 28.3845 7.17806C27.6762 8.42802 27.2255 9.80789 27.0593 11.2359C26.893 12.6639 27.0145 14.1108 27.4165 15.4908C27.6698 16.4545 28.0625 17.3758 28.5821 18.2253C29.5344 19.7587 30.8506 21.0317 32.4131 21.9306C34.0667 22.8664 35.9409 23.3386 37.8391 23.2978V23.3046Z" fill="white"/>
<path d="M66.3054 0C68.364 5.54188 71.4815 13.8775 75.6578 25.0068H73.9673C73.5242 23.8241 72.8562 22.0468 71.97 19.6609H60.6544C60.2045 20.8436 59.5433 22.621 58.6571 25.0068H56.9257C58.8071 19.9526 61.636 12.3735 65.4124 2.26958C65.4806 2.09184 65.5692 1.85261 65.6783 1.53815C65.7873 1.22368 66.0395 0.669948 66.3054 0ZM61.2747 17.9586H71.3292C70.1977 14.9781 68.5231 10.505 66.3054 4.53925C65.1738 7.52895 63.4969 12.002 61.2747 17.9586Z" fill="white"/>
<path d="M83.6128 1.3887e-05H88.5685C89.7413 -0.00259218 90.9081 0.167853 92.0313 0.505886C93.124 0.807417 94.1667 1.26807 95.1261 1.87313C96.898 2.981 98.3632 4.51852 99.3865 6.34395C100.452 8.21858 101.012 10.339 101.012 12.4965C101.012 14.6541 100.452 16.7745 99.3865 18.6491C98.3651 20.476 96.8995 22.014 95.1261 23.12C94.1667 23.7251 93.124 24.1857 92.0313 24.4873C90.9081 24.8253 89.7413 24.9957 88.5685 24.9931H82.3108V-0.0136719L83.6128 1.3887e-05ZM84.9762 23.3046H88.6026C90.4582 23.3322 92.2873 22.86 93.8991 21.9374C95.4715 21.0421 96.7974 19.7688 97.7573 18.2321C98.277 17.3826 98.6697 16.4613 98.9229 15.4976C99.2118 14.5238 99.3565 13.5126 99.3524 12.4965C99.3536 11.4784 99.209 10.4655 98.9229 9.48867C98.6644 8.54832 98.2718 7.65033 97.7573 6.82253C96.8012 5.28269 95.4745 4.00854 93.8991 3.11728C92.2925 2.1775 90.4624 1.69095 88.6026 1.70907H84.0423V23.2978L84.9762 23.3046Z" fill="white"/>
<path d="M120.123 15.2926C122.209 12.7541 126.369 7.65655 132.604 0V25.0068H130.907V4.7785L120.123 17.9929C117.751 15.0624 114.167 10.6576 109.373 4.7785V25.0068H107.676V0L120.123 15.2926Z" fill="white"/>
<path d="M148.616 0C150.679 5.54188 153.797 13.8775 157.969 25.0068H156.271C155.828 23.8241 155.16 22.0468 154.274 19.6609H142.958C142.515 20.8436 141.847 22.621 140.961 25.0068H139.264C141.145 19.9526 143.974 12.3735 147.75 2.26958C147.819 2.09184 147.907 1.85261 148.016 1.53815C148.125 1.22368 148.35 0.669948 148.616 0ZM143.592 17.9586H153.64C152.509 14.9781 150.834 10.505 148.616 4.53925C147.476 7.52895 145.801 12.002 143.592 17.9586Z" fill="white"/>
<path d="M174.376 2.107e-05C175.931 -0.0120988 177.46 0.391384 178.807 1.16899C180.105 1.918 181.2 2.97415 181.997 4.24528C182.421 4.94195 182.747 5.69428 182.965 6.48073C183.456 8.11243 183.456 9.85309 182.965 11.4848C182.747 12.2712 182.421 13.0236 181.997 13.7202C181.202 14.991 180.106 16.0453 178.807 16.7897C177.46 17.5673 175.931 17.9708 174.376 17.9587H166.326V25.0068H164.628V2.107e-05H174.376ZM174.376 16.2565C176.262 16.1985 178.052 15.4064 179.365 14.048C180.679 12.6896 181.414 10.8717 181.414 8.97938C181.414 7.08709 180.679 5.26913 179.365 3.91073C178.052 2.55233 176.262 1.76021 174.376 1.70223H166.326V16.2565H174.376Z" fill="white"/>
</g>
<defs>
<clipPath id="clip0_6_336">
<rect width="183.333" height="25" fill="white"/>
</clipPath>
</defs>
</svg>
