<svg width="403" height="30" viewBox="0 0 403 30" fill="none" xmlns="http://www.w3.org/2000/svg">
<g clip-path="url(#clip0_102_41)">
<path d="M2.05011 0V21.5262H20.5011V0H22.5513V30H20.5011V23.6105H2.05011V30H0V0H2.05011Z" fill="white"/>
<path d="M45.5125 -0.000117745C46.9252 -0.00697134 48.3306 0.200397 49.6811 0.614917C50.9956 0.977883 52.2502 1.53038 53.4055 2.25501C55.5476 3.57165 57.3131 5.41955 58.5308 7.61947C59.8564 9.83849 60.5423 12.381 60.5125 14.9657C60.5192 16.3895 60.3118 17.8062 59.8975 19.1684C59.5345 20.483 58.982 21.7376 58.2574 22.8928C56.9408 25.035 55.0929 26.8005 52.8929 28.0181C50.6502 29.317 48.1043 30.001 45.5125 30.001C42.9208 30.001 40.3749 29.317 38.1321 28.0181C35.9322 26.8005 34.0843 25.035 32.7677 22.8928C32.0291 21.745 31.4756 20.4882 31.1276 19.1684C30.3078 16.4382 30.3078 13.5274 31.1276 10.7971C31.4824 9.47976 32.0354 8.22395 32.7677 7.07278C34.1029 4.94578 35.9465 3.18444 38.1321 1.94749C40.3733 0.648658 42.9223 -0.0240037 45.5125 -0.000117745ZM45.5125 27.9498C46.743 27.9189 47.9627 27.7117 49.1344 27.3347C50.2624 26.9967 51.3419 26.5144 52.3462 25.8997C54.1944 24.764 55.723 23.1766 56.7882 21.2869C57.9179 19.3369 58.4966 17.1166 58.4624 14.8632C58.4488 13.7062 58.2763 12.5565 57.9499 11.4464C57.6314 10.3169 57.1601 9.23631 56.549 8.23451C55.3901 6.39326 53.7937 4.8673 51.9021 3.79259C49.9682 2.64649 47.7605 2.0444 45.5125 2.05C44.2982 2.04765 43.0899 2.22027 41.9248 2.56252C40.7794 2.8661 39.6854 3.33823 38.6788 3.96344C36.8126 5.11352 35.2624 6.71063 34.1686 8.61036C33.0428 10.5371 32.4639 12.7344 32.4943 14.9657C32.4896 16.1914 32.6623 17.4113 33.0068 18.5876C33.3104 19.733 33.7825 20.827 34.4077 21.8336C35.5625 23.6663 37.1456 25.1907 39.0205 26.2755C40.9938 27.4093 43.2371 27.9878 45.5125 27.9498Z" fill="white"/>
<path d="M70.5581 0V27.9499H83.5421V30H68.508V0H70.5581Z" fill="white"/>
<path d="M99.0888 6.40871e-05C100.501 -0.00418749 101.906 0.203123 103.257 0.615098C107.008 1.69009 110.178 4.20929 112.073 7.61965C113.382 9.84548 114.067 12.3834 114.055 14.9659C114.068 17.57 113.383 20.1301 112.073 22.3805C111.131 24.0726 109.864 25.5622 108.346 26.7642C106.827 27.9661 105.086 28.8567 103.223 29.385C101.883 29.7936 100.49 30.0009 99.0888 30.0001H91.5717V6.40871e-05H99.0888ZM99.0888 27.95C100.308 27.9135 101.515 27.7065 102.677 27.3349C103.815 27.0425 104.907 26.5941 105.923 26.0023C107.814 24.851 109.375 23.2291 110.453 21.2949C111.53 19.3607 112.089 17.1801 112.073 14.9659C112.063 13.806 111.878 12.6542 111.526 11.549C111.222 10.4144 110.75 9.3318 110.125 8.33719C108.99 6.48906 107.402 4.96042 105.513 3.89528C103.579 2.70728 101.358 2.06934 99.0888 2.05018H93.6219V27.95H99.0888Z" fill="white"/>
<path d="M144.499 0V2.05011H123.998V21.5262H133.257V23.6105H124.1V27.9499H144.601V30H122.05V0H144.499Z" fill="white"/>
<path d="M175.046 10.7632C175.051 11.7798 174.913 12.792 174.636 13.77C174.355 14.712 173.965 15.6179 173.474 16.4694C172.496 17.9776 171.172 19.2309 169.613 20.1254C167.997 21.0702 166.154 21.5547 164.282 21.5263H163.804C164.624 23.4397 165.888 26.2416 167.563 30.0001H165.308L161.481 21.5263H154.647V30.0001H152.597V0.00011157H164.317C165.367 -0.0147848 166.415 0.123337 167.426 0.410134C168.375 0.68799 169.282 1.09011 170.125 1.60603C171.64 2.56192 172.896 3.87629 173.781 5.43291C174.678 7.06208 175.116 8.90465 175.046 10.7632ZM154.544 19.5104H164.214C165.367 19.5568 166.517 19.3654 167.593 18.9481C168.669 18.5307 169.647 17.8963 170.467 17.0844C171.295 16.2841 171.95 15.3221 172.391 14.2583C172.831 13.1944 173.049 12.0513 173.03 10.8999C173.046 9.7539 172.827 8.61671 172.387 7.55877C171.946 6.50083 171.292 5.54468 170.467 4.74954C169.679 3.89676 168.722 3.21662 167.657 2.75203C166.593 2.28744 165.444 2.04848 164.282 2.05023H154.613V19.5104H154.544Z" fill="white"/>
<path d="M185.98 3.1093C186.269 2.48352 186.682 1.92223 187.192 1.45859C187.703 0.994958 188.301 0.638395 188.952 0.409983C189.528 0.178943 190.143 0.0628632 190.763 0.0682976C191.515 0.0711005 192.254 0.258856 192.916 0.614995L192.267 2.01591L192.062 2.49427C191.677 2.33357 191.265 2.25081 190.849 2.25081C190.432 2.25081 190.02 2.33357 189.636 2.49427C188.852 2.78864 188.215 3.37708 187.859 4.13436C187.681 4.51081 187.58 4.91883 187.561 5.33475C187.542 5.75066 187.606 6.16618 187.749 6.55718C187.892 6.94818 188.111 7.30686 188.394 7.61241C188.677 7.91796 189.018 8.16429 189.396 8.33709L191.481 9.22547L192.198 9.49882C193.095 9.95698 193.943 10.5066 194.727 11.1389C195.455 11.8086 196.098 12.5661 196.64 13.394C197.646 14.8992 198.236 16.644 198.349 18.451C198.364 18.7469 198.364 19.0434 198.349 19.3394C198.343 20.8999 197.993 22.4401 197.323 23.8496C196.587 25.544 195.407 27.0079 193.907 28.0865C192.443 29.1321 190.739 29.7903 188.952 30C188.52 30.0339 188.086 30.0339 187.654 30C186.084 29.9523 184.539 29.5922 183.109 28.9407L183.759 27.574L183.998 27.0956C185.02 27.5921 186.134 27.8698 187.27 27.911C188.405 27.9522 189.537 27.7559 190.592 27.3348C191.684 26.9647 192.688 26.3731 193.54 25.597C194.393 24.8208 195.076 23.877 195.547 22.8246C196.052 21.7943 196.34 20.6713 196.393 19.5251C196.446 18.3789 196.262 17.2341 195.854 16.1617C195.469 15.0817 194.872 14.0899 194.097 13.2448C193.323 12.3997 192.386 11.7185 191.344 11.2414L189.226 10.2505H188.508C187.887 9.96734 187.331 9.56075 186.873 9.05555C186.415 8.55035 186.064 7.95712 185.843 7.31203C185.561 6.64324 185.427 5.92121 185.45 5.19568C185.474 4.47014 185.654 3.75834 185.98 3.1093Z" fill="white"/>
<path d="M239.966 19.1686C239.977 20.188 239.827 21.2027 239.522 22.1754C239.262 23.125 238.871 24.0335 238.36 24.8748C237.406 26.409 236.093 27.6874 234.533 28.5991C232.909 29.5238 231.071 30.0068 229.203 30H217.449V3.97822e-05H223.462C224.15 -0.00993102 224.832 0.121394 225.467 0.385879C226.102 0.650365 226.676 1.04238 227.153 1.53763C227.65 2.0199 228.044 2.59937 228.308 3.24006C228.573 3.88075 228.703 4.56897 228.69 5.262C228.691 5.83419 228.587 6.40166 228.383 6.93626C228.201 7.4584 227.948 7.95286 227.631 8.40551H229.203C230.222 8.39751 231.236 8.54735 232.21 8.8497C233.149 9.10835 234.046 9.49953 234.875 10.0114C236.399 10.9662 237.666 12.2802 238.565 13.8383C239.49 15.4622 239.973 17.3 239.966 19.1686ZM219.465 8.40551H224.146C224.745 8.26944 225.292 7.96057 225.718 7.51712C226.015 7.21522 226.249 6.85753 226.407 6.46463C226.566 6.07174 226.645 5.6514 226.64 5.22783C226.645 4.81436 226.566 4.40415 226.408 4.02228C226.249 3.64041 226.014 3.2949 225.718 3.00687C225.418 2.70356 225.062 2.46278 224.669 2.29853C224.276 2.13428 223.854 2.04985 223.428 2.05015H219.499L219.465 8.40551ZM237.882 19.2028C237.886 18.0573 237.664 16.9223 237.228 15.8631C236.791 14.804 236.15 13.8417 235.34 13.0317C234.53 12.2217 233.567 11.5801 232.508 11.1438C231.449 10.7076 230.314 10.4853 229.169 10.4898H219.499V27.9499H229.203C230.349 27.9665 231.486 27.7477 232.544 27.3069C233.602 26.8661 234.558 26.2127 235.353 25.3873C236.181 24.587 236.836 23.625 237.277 22.5612C237.717 21.4973 237.935 20.3542 237.916 19.2028H237.882Z" fill="white"/>
<path d="M270.444 0V2.05011H249.943V21.5262H259.169V23.6105H249.943V27.9499H270.444V30H247.961V0H270.444Z" fill="white"/>
<path d="M298.941 24.2255V0H300.991V30C296.435 24.6469 289.601 16.5945 280.49 5.84282V30H278.44V0L298.941 24.2255Z" fill="white"/>
<path d="M331.435 0V2.05011H310.934V21.5262H320.159V23.6105H310.934V27.9499H331.435V30H308.986V0H331.435Z" fill="white"/>
<path d="M361.982 0V2.05011H341.481V21.5262H350.706V23.6105H341.686V30H339.636V0H361.982Z" fill="white"/>
<path d="M372.027 0V30H369.977V0H372.027Z" fill="white"/>
<path d="M402.54 2.05011H392.289V30H390.205V2.05011H379.954V0H402.472L402.54 2.05011Z" fill="white"/>
</g>
<defs>
<clipPath id="clip0_102_41">
<rect width="402.54" height="30" fill="white"/>
</clipPath>
</defs>
</svg>
