<svg width="175" height="38" viewBox="0 0 175 38" fill="none" xmlns="http://www.w3.org/2000/svg">
<g clip-path="url(#clip0_102_2)">
<path d="M3.74285 3.9385C4.10305 3.14731 4.62025 2.43663 5.26341 1.84909C5.90658 1.26156 6.66245 0.809269 7.4857 0.519362C8.21273 0.19701 8.99659 0.020517 9.79234 0C10.7496 0.00355037 11.6912 0.241375 12.5342 0.692483L11.7508 2.55353L11.4897 3.15945C10.4814 2.77254 9.36442 2.77254 8.35613 3.15945C7.36978 3.53385 6.57205 4.2805 6.13653 5.2369C5.93184 5.72357 5.82644 6.24583 5.82644 6.77335C5.82644 7.30087 5.93184 7.82313 6.13653 8.3098C6.31596 8.80466 6.59325 9.25876 6.95205 9.6453C7.31084 10.0318 7.74387 10.343 8.22556 10.5604L10.8804 11.6857L11.7943 12.0319C12.9428 12.602 14.0232 13.2989 15.0149 14.1093C15.9275 14.8958 16.7322 15.7979 17.4086 16.7927C18.677 18.709 19.4403 20.9117 19.6282 23.1982C19.6282 23.5877 19.6282 23.9772 19.6282 24.3235C19.5887 26.3011 19.1289 28.2481 18.279 30.0364C17.2816 32.1397 15.7645 33.9572 13.8695 35.3196C11.9745 36.6819 9.76321 37.5445 7.44218 37.8269C6.90628 37.8697 6.36778 37.8697 5.83188 37.8269C5.10794 37.8907 4.37974 37.8907 3.65581 37.8269C2.38064 37.6169 1.14683 37.2079 0 36.615L0.826909 34.8838L1.13156 34.2779C2.43619 34.9199 3.8618 35.2825 5.3162 35.3421C6.77059 35.4017 8.22137 35.1572 9.57473 34.6241C10.9675 34.149 12.2487 33.3977 13.3409 32.4157C14.4332 31.4337 15.3136 30.2414 15.9289 28.9112C16.5433 27.593 16.8899 26.1672 16.9489 24.7155C17.0079 23.2638 16.7781 21.8148 16.2726 20.4517C15.7672 19.0885 14.9961 17.8381 14.0035 16.772C13.011 15.7059 11.8165 14.8451 10.4887 14.2392L7.83387 12.9841H6.91992C6.12961 12.6253 5.42104 12.1103 4.83741 11.4704C4.25378 10.8305 3.80731 10.0791 3.52524 9.26196C3.1724 8.41173 3.00914 7.49552 3.04671 6.57649C3.08427 5.65745 3.32178 4.75745 3.74285 3.9385Z" fill="white"/>
<path d="M58.4059 2.59681H45.3494V38H42.7381V2.59681H29.6817V0H58.3623L58.4059 2.59681Z" fill="white"/>
<path d="M82.9085 0C86.1291 8.45406 90.9164 21.1207 97.2706 38H94.6593L91.6128 29.9066H74.2042L71.1577 38H68.5464L81.6028 3.37585C81.6028 3.11617 81.864 2.76993 82.0816 2.25057C82.2992 1.73121 82.6909 1.03872 82.9085 0ZM75.2487 27.2665H90.6118L82.9085 6.88155L75.2487 27.2665Z" fill="white"/>
<path d="M136.135 13.6333C136.128 14.9229 135.937 16.2051 135.57 17.4419C135.231 18.6418 134.733 19.7916 134.09 20.861C132.856 22.7814 131.167 24.3714 129.172 25.492C127.114 26.6888 124.766 27.3025 122.383 27.2665H121.86C122.948 29.6902 124.515 33.2392 126.691 38H123.775C122.731 35.6196 121.077 32.0706 118.901 27.2665H110.196V38H107.585V0H122.513C123.764 0.00551608 125.009 0.180238 126.212 0.519362C127.426 0.856662 128.584 1.36689 129.651 2.03417C131.582 3.25561 133.194 4.91731 134.351 6.88155C135.529 8.93845 136.144 11.2663 136.135 13.6333ZM110.022 24.713H122.339C123.8 24.7659 125.257 24.5205 126.619 23.992C127.982 23.4635 129.221 22.6631 130.26 21.6401C131.315 20.6263 132.149 19.4079 132.71 18.0603C133.272 16.7128 133.549 15.2648 133.524 13.8064C133.545 12.3548 133.266 10.9144 132.705 9.5743C132.143 8.23425 131.311 7.02312 130.26 6.01595C129.256 4.93575 128.037 4.07424 126.681 3.48576C125.326 2.89728 123.862 2.5946 122.383 2.59681H110.066V24.713H110.022Z" fill="white"/>
<path d="M175 2.59681H161.944V38H159.289V2.59681H146.232V0H174.913L175 2.59681Z" fill="white"/>
</g>
<defs>
<clipPath id="clip0_102_2">
<rect width="175" height="38" fill="white"/>
</clipPath>
</defs>
</svg>
