<svg width="311" height="204" viewBox="0 0 311 204" fill="none" xmlns="http://www.w3.org/2000/svg">
<g clip-path="url(#clip0_210_9)">
<path d="M58.7916 14.9886H33.8485V83H28.9431V14.9886H4V10H58.7916V14.9886Z" fill="white"/>
<path d="M132.872 10V14.9886H82.9863V62.3804H105.352V67.4522H83.2358V78.0114H133.122V83H78.2472V10H132.872Z" fill="white"/>
<path d="M179.849 10C186.001 26.6287 195.064 50.574 207.286 83H202.297L196.394 67.4522H163.137L157.317 83H152.328L177.271 16.4852C177.271 15.9863 177.77 15.3212 178.103 14.3235C178.435 13.3257 179.183 11.9954 179.849 10ZM165.132 62.3804H194.565L179.849 23.2198C176.634 31.9776 171.728 45.0311 165.132 62.3804Z" fill="white"/>
<path d="M263.158 54.6481C269.311 47.2483 281.45 32.3656 299.741 10V83H295.002V23.9681L263.408 62.5467C256.507 54.2323 245.948 41.0957 231.98 23.9681V83H226.991V10C234.89 19.9772 247.028 34.9431 263.158 54.6481Z" fill="white"/>
</g>
<g filter="url(#filter0_dd_210_9)">
<path d="M197.563 61.6437C197.563 62.96 196.573 63.6181 194.592 63.6181C194.037 63.6293 193.482 63.5741 192.941 63.4536C184.371 62.102 175.738 61.1867 167.075 60.7113C158.563 60.3457 149.39 60.1629 139.558 60.1629C125.909 60.1629 112.151 60.6565 98.2822 61.6437C88.9414 70.7157 80.3982 80.5692 72.7465 91.0958C66.3831 99.6176 60.9845 108.814 56.6491 118.519C52.9893 126.422 50.9945 134.99 50.788 143.693C50.782 144.527 50.8931 145.357 51.1182 146.161C51.3071 146.747 51.4181 147.356 51.4484 147.971C51.4507 148.238 51.3925 148.503 51.2782 148.745C51.1639 148.987 50.9963 149.2 50.788 149.369C50.3823 149.739 49.8522 149.945 49.302 149.945C48.7209 149.928 48.1602 149.727 47.7004 149.372C47.2407 149.018 46.9055 148.527 46.743 147.971C46.2449 146.618 45.9933 145.188 46 143.748C46.2293 134.713 48.2786 125.816 52.0262 117.586C56.4372 107.509 61.9757 97.9602 68.5364 89.1213C75.2924 79.5532 82.8598 70.5805 91.1553 62.3018C82.8981 62.9995 74.7035 64.301 66.6377 66.1959C65.5062 66.4989 64.342 66.6646 63.1706 66.6895C61.0793 66.6895 60.0337 66.0313 60.0337 64.715C60.0317 64.3399 60.112 63.9689 60.2688 63.6279C60.4257 63.2868 60.6553 62.984 60.9417 62.7406C61.9421 62.0274 63.1056 61.5749 64.3263 61.4243C74.8506 59.3878 85.4933 58.0139 96.1909 57.3109C98.5024 55.0439 101.584 52.2102 105.437 48.8098C106.409 47.8167 107.688 47.1791 109.069 46.9999C109.27 46.9727 109.476 46.9923 109.668 47.0571C109.861 47.122 110.036 47.2302 110.18 47.3736C110.324 47.5169 110.432 47.6914 110.497 47.8834C110.562 48.0755 110.582 48.2799 110.555 48.4807C110.506 49.0629 110.334 49.6282 110.049 50.1388C109.765 50.6495 109.374 51.0939 108.904 51.4424L103.4 56.7076C115.728 55.9397 127.725 55.5558 139.393 55.5558C157.554 55.3599 175.707 56.4596 193.711 58.8466C196.279 59.2853 197.563 60.2177 197.563 61.6437Z" fill="white"/>
</g>
<g filter="url(#filter1_dd_210_9)">
<path d="M129.046 95.5384C128.97 96.3603 128.587 97.1237 127.973 97.6774C127.183 98.5123 126.328 99.2826 125.414 99.9809C118.707 105.454 111.395 110.146 103.621 113.967C97.1838 117.551 90.0142 119.633 82.6526 120.054C81.6279 120.109 80.6036 119.939 79.6525 119.555C78.7013 119.171 77.8467 118.583 77.1492 117.833C75.8073 116.441 75.0664 114.58 75.0854 112.65C75.0991 109.147 76.0489 105.711 77.8371 102.696C79.6393 99.535 82.1199 96.8101 85.1016 94.7157C87.8301 92.7124 91.1235 91.6183 94.5124 91.5895C95.876 91.5254 97.2103 91.9982 98.2272 92.9058C98.6826 93.3232 99.0434 93.8327 99.2854 94.4002C99.5274 94.9677 99.6451 95.5801 99.6306 96.1965C99.6306 98.8291 97.7961 101.133 94.1272 103.107C90.1994 105.103 85.8188 106.048 81.4143 105.849C80.5055 107.987 80.0017 110.275 79.9284 112.595C79.9113 113.31 80.1448 114.008 80.5888 114.57C80.832 114.851 81.1378 115.072 81.4817 115.215C81.8257 115.358 82.1984 115.418 82.5701 115.392C89.6045 114.89 96.4339 112.809 102.547 109.305C110.256 105.458 117.51 100.767 124.176 95.319C125.018 94.5033 126.138 94.0334 127.313 94.0027C128.468 94.0393 129.046 94.5512 129.046 95.5384ZM89.5869 97.5128C87.7847 98.4215 86.1626 99.6479 84.7989 101.133C86.3833 101.124 87.9518 100.817 89.4218 100.228C90.819 99.6994 92.149 99.0091 93.3842 98.171C94.4849 97.4031 95.0352 96.8547 95.0352 96.5256C95.0352 96.1965 94.8701 96.0868 94.5399 96.1965C92.808 96.2407 91.1109 96.6917 89.5869 97.5128Z" fill="white"/>
</g>
<g filter="url(#filter2_dd_210_9)">
<path d="M172.578 95.7029C172.578 96.5804 171.661 97.787 169.826 99.3227C155.958 111.279 146.217 117.257 140.603 117.257C139.875 117.276 139.151 117.147 138.475 116.878C137.799 116.609 137.185 116.206 136.67 115.693C136.155 115.18 135.75 114.568 135.48 113.894C135.21 113.22 135.081 112.498 135.1 111.773C135.151 109.117 135.455 106.473 136.008 103.875C136.613 100.804 136.806 99.2678 136.586 99.2678C135.231 99.8103 133.954 100.53 132.788 101.407C130.257 103.052 128.083 104.341 126.267 105.273C124.829 106.099 123.218 106.577 121.562 106.672C121.152 106.71 120.739 106.655 120.353 106.513C119.968 106.37 119.619 106.144 119.333 105.849C118.821 105.257 118.555 104.492 118.59 103.71C118.889 101.23 120.094 98.9457 121.974 97.2934C124.299 94.8274 127.002 92.7448 129.982 91.1233C132.424 89.6163 135.204 88.7398 138.072 88.573C138.782 88.5283 139.494 88.6459 140.152 88.9168C140.81 89.1877 141.397 89.6047 141.869 90.1361C142.812 91.057 143.364 92.3038 143.41 93.6187C143.438 94.2846 143.265 94.9434 142.915 95.5109C142.802 95.7227 142.636 95.9021 142.434 96.0317C142.232 96.1614 141.999 96.237 141.759 96.2513C141.897 96.8442 141.953 97.4532 141.924 98.0612C141.839 100.621 141.451 103.161 140.768 105.63C140.658 106.507 140.493 107.422 140.273 108.372C140.065 109.272 139.954 110.191 139.943 111.114C139.943 112.102 140.328 112.595 141.099 112.595C144.951 112.595 153.701 106.946 167.35 95.648C168.356 94.7317 169.628 94.1559 170.982 94.0027C171.207 93.9778 171.436 94.0057 171.648 94.0841C171.861 94.1625 172.052 94.2893 172.207 94.4544C172.362 94.6194 172.476 94.8182 172.541 95.0349C172.605 95.2517 172.618 95.4804 172.578 95.7029ZM129.376 99.1033C134.329 95.9223 137.411 94.3317 138.622 94.3317C139.015 94.3036 139.409 94.3597 139.778 94.4963V94.3317C139.558 93.3445 139.062 92.8509 138.292 92.8509C136.478 93.0407 134.73 93.6309 133.174 94.5785C131.087 95.6547 129.122 96.951 127.313 98.4452C125.607 99.8711 124.754 100.968 124.754 101.736C126.375 101.006 127.923 100.125 129.376 99.1033Z" fill="white"/>
</g>
<g filter="url(#filter3_dd_210_9)">
<path d="M256.587 99.405C256.853 99.762 256.998 100.194 257 100.639C257.007 101.277 256.771 101.895 256.34 102.367C255.899 102.86 255.074 103.656 253.863 104.752C247.815 109.682 241.373 114.112 234.601 117.998C229.989 120.958 224.715 122.738 219.247 123.181C218.24 123.305 217.217 123.175 216.275 122.801C215.332 122.427 214.499 121.822 213.853 121.042C212.959 119.627 212.421 118.019 212.285 116.352C212.12 114.524 211.872 113.61 211.542 113.61C210.506 113.842 209.554 114.355 208.79 115.091C207.525 116.078 206.176 117.23 204.745 118.546C202.593 120.498 200.333 122.329 197.976 124.031C196.528 125.246 194.743 125.992 192.858 126.17C192.284 126.18 191.714 126.069 191.188 125.842C190.661 125.614 190.189 125.278 189.804 124.853C189.016 124.067 188.571 123.003 188.565 121.892C188.84 119.411 189.597 117.008 190.794 114.817C192.28 111.636 194.399 107.358 197.151 101.983C201.553 93.6463 203.755 88.7102 203.755 87.1745C203.755 86.5163 203.259 86.1873 202.269 86.1873C199.05 86.6621 195.977 87.8422 193.271 89.6425C188.431 92.5162 183.895 95.8696 179.732 99.6518C174.779 103.938 170.296 108.737 166.359 113.967C165.99 114.583 165.487 115.11 164.887 115.509C164.287 115.907 163.606 116.167 162.892 116.27C162.613 116.266 162.337 116.206 162.081 116.093C161.826 115.98 161.596 115.816 161.406 115.612C161.179 115.371 161.003 115.086 160.889 114.775C160.776 114.463 160.727 114.133 160.746 113.802C160.753 113.114 160.923 112.438 161.241 111.828L163.718 106.343C165.302 103.369 166.681 100.29 167.845 97.129C168.136 96.135 168.612 95.2046 169.248 94.3867C169.435 94.1448 169.671 93.946 169.942 93.804C170.213 93.662 170.511 93.5801 170.817 93.564C171.12 93.5811 171.415 93.6727 171.674 93.8306C171.933 93.9885 172.149 94.2078 172.303 94.4689C172.758 95.119 172.989 95.8982 172.963 96.6902C173 97.6474 172.772 98.5963 172.303 99.4325L170.322 103.381C175.743 97.2699 181.93 91.8783 188.73 87.339C194.399 83.6826 198.719 81.9002 201.691 81.9916C203.454 81.8831 205.193 82.4413 206.561 83.5547C207.151 84.0914 207.617 84.7496 207.926 85.4836C208.234 86.2176 208.379 87.0098 208.35 87.8052C208.004 90.627 207.136 93.3605 205.791 95.8675C204.085 99.5239 201.746 104.295 198.774 110.182C196.537 113.817 194.693 117.678 193.271 121.7C193.491 121.7 194.041 121.316 194.922 120.548L197.068 118.738C200.37 115.886 203.214 113.583 205.598 111.828C207.405 110.266 209.656 109.307 212.037 109.085C213.872 109.085 215.083 109.551 215.67 110.484C216.301 111.773 216.621 113.191 216.605 114.625C216.652 115.635 216.846 116.632 217.183 117.586C217.354 117.93 217.63 118.211 217.971 118.389C218.312 118.566 218.701 118.631 219.082 118.574C222.274 118.574 226.924 116.846 233.033 113.391C239.586 109.627 245.801 105.306 251.607 100.475C252.53 99.5019 253.788 98.914 255.129 98.8292C255.401 98.7919 255.678 98.8253 255.934 98.9262C256.189 99.0271 256.414 99.192 256.587 99.405Z" fill="white"/>
</g>
<defs>
<filter id="filter0_dd_210_9" x="-0.00012207" y="0.988037" width="251.564" height="202.957" filterUnits="userSpaceOnUse" color-interpolation-filters="sRGB">
<feFlood flood-opacity="0" result="BackgroundImageFix"/>
<feColorMatrix in="SourceAlpha" type="matrix" values="0 0 0 0 0 0 0 0 0 0 0 0 0 0 0 0 0 0 127 0" result="hardAlpha"/>
<feOffset dx="2" dy="2"/>
<feGaussianBlur stdDeviation="20"/>
<feComposite in2="hardAlpha" operator="out"/>
<feColorMatrix type="matrix" values="0 0 0 0 1 0 0 0 0 1 0 0 0 0 1 0 0 0 0.25 0"/>
<feBlend mode="normal" in2="BackgroundImageFix" result="effect1_dropShadow_210_9"/>
<feColorMatrix in="SourceAlpha" type="matrix" values="0 0 0 0 0 0 0 0 0 0 0 0 0 0 0 0 0 0 127 0" result="hardAlpha"/>
<feOffset dx="4" dy="4"/>
<feGaussianBlur stdDeviation="25"/>
<feComposite in2="hardAlpha" operator="out"/>
<feColorMatrix type="matrix" values="0 0 0 0 1 0 0 0 0 0.337255 0 0 0 0 0.964706 0 0 0 1 0"/>
<feBlend mode="normal" in2="effect1_dropShadow_210_9" result="effect2_dropShadow_210_9"/>
<feBlend mode="normal" in="SourceGraphic" in2="effect2_dropShadow_210_9" result="shape"/>
</filter>
<filter id="filter1_dd_210_9" x="29.0851" y="45.5837" width="153.961" height="128.481" filterUnits="userSpaceOnUse" color-interpolation-filters="sRGB">
<feFlood flood-opacity="0" result="BackgroundImageFix"/>
<feColorMatrix in="SourceAlpha" type="matrix" values="0 0 0 0 0 0 0 0 0 0 0 0 0 0 0 0 0 0 127 0" result="hardAlpha"/>
<feOffset dx="2" dy="2"/>
<feGaussianBlur stdDeviation="20"/>
<feComposite in2="hardAlpha" operator="out"/>
<feColorMatrix type="matrix" values="0 0 0 0 1 0 0 0 0 1 0 0 0 0 1 0 0 0 0.25 0"/>
<feBlend mode="normal" in2="BackgroundImageFix" result="effect1_dropShadow_210_9"/>
<feColorMatrix in="SourceAlpha" type="matrix" values="0 0 0 0 0 0 0 0 0 0 0 0 0 0 0 0 0 0 127 0" result="hardAlpha"/>
<feOffset dx="4" dy="4"/>
<feGaussianBlur stdDeviation="25"/>
<feComposite in2="hardAlpha" operator="out"/>
<feColorMatrix type="matrix" values="0 0 0 0 1 0 0 0 0 0.337255 0 0 0 0 0.964706 0 0 0 1 0"/>
<feBlend mode="normal" in2="effect1_dropShadow_210_9" result="effect2_dropShadow_210_9"/>
<feBlend mode="normal" in="SourceGraphic" in2="effect2_dropShadow_210_9" result="shape"/>
</filter>
<filter id="filter2_dd_210_9" x="72.5867" y="42.5637" width="154.014" height="128.695" filterUnits="userSpaceOnUse" color-interpolation-filters="sRGB">
<feFlood flood-opacity="0" result="BackgroundImageFix"/>
<feColorMatrix in="SourceAlpha" type="matrix" values="0 0 0 0 0 0 0 0 0 0 0 0 0 0 0 0 0 0 127 0" result="hardAlpha"/>
<feOffset dx="2" dy="2"/>
<feGaussianBlur stdDeviation="20"/>
<feComposite in2="hardAlpha" operator="out"/>
<feColorMatrix type="matrix" values="0 0 0 0 1 0 0 0 0 1 0 0 0 0 1 0 0 0 0.25 0"/>
<feBlend mode="normal" in2="BackgroundImageFix" result="effect1_dropShadow_210_9"/>
<feColorMatrix in="SourceAlpha" type="matrix" values="0 0 0 0 0 0 0 0 0 0 0 0 0 0 0 0 0 0 127 0" result="hardAlpha"/>
<feOffset dx="4" dy="4"/>
<feGaussianBlur stdDeviation="25"/>
<feComposite in2="hardAlpha" operator="out"/>
<feColorMatrix type="matrix" values="0 0 0 0 1 0 0 0 0 0.337255 0 0 0 0 0.964706 0 0 0 1 0"/>
<feBlend mode="normal" in2="effect1_dropShadow_210_9" result="effect2_dropShadow_210_9"/>
<feBlend mode="normal" in="SourceGraphic" in2="effect2_dropShadow_210_9" result="shape"/>
</filter>
<filter id="filter3_dd_210_9" x="114.742" y="35.9783" width="196.258" height="144.192" filterUnits="userSpaceOnUse" color-interpolation-filters="sRGB">
<feFlood flood-opacity="0" result="BackgroundImageFix"/>
<feColorMatrix in="SourceAlpha" type="matrix" values="0 0 0 0 0 0 0 0 0 0 0 0 0 0 0 0 0 0 127 0" result="hardAlpha"/>
<feOffset dx="2" dy="2"/>
<feGaussianBlur stdDeviation="20"/>
<feComposite in2="hardAlpha" operator="out"/>
<feColorMatrix type="matrix" values="0 0 0 0 1 0 0 0 0 1 0 0 0 0 1 0 0 0 0.25 0"/>
<feBlend mode="normal" in2="BackgroundImageFix" result="effect1_dropShadow_210_9"/>
<feColorMatrix in="SourceAlpha" type="matrix" values="0 0 0 0 0 0 0 0 0 0 0 0 0 0 0 0 0 0 127 0" result="hardAlpha"/>
<feOffset dx="4" dy="4"/>
<feGaussianBlur stdDeviation="25"/>
<feComposite in2="hardAlpha" operator="out"/>
<feColorMatrix type="matrix" values="0 0 0 0 1 0 0 0 0 0.337255 0 0 0 0 0.964706 0 0 0 1 0"/>
<feBlend mode="normal" in2="effect1_dropShadow_210_9" result="effect2_dropShadow_210_9"/>
<feBlend mode="normal" in="SourceGraphic" in2="effect2_dropShadow_210_9" result="shape"/>
</filter>
<clipPath id="clip0_210_9">
<rect width="295.741" height="73" fill="white" transform="translate(4 10)"/>
</clipPath>
</defs>
</svg>
