<svg width="363" height="30" viewBox="0 0 363 30" fill="none" xmlns="http://www.w3.org/2000/svg">
<g clip-path="url(#clip0_102_58)">
<path d="M11.7198 -8.14077e-05C13.601 -0.0210044 15.4535 0.462755 17.0843 1.40083C18.6475 2.29272 19.963 3.56124 20.9112 5.09103C21.4231 5.91971 21.8142 6.81712 22.0729 7.75618C22.3589 8.73318 22.5084 9.74505 22.5171 10.763C22.5016 11.7468 22.3522 12.7239 22.0729 13.6673C21.8069 14.6146 21.4163 15.5223 20.9112 16.3667C19.9651 17.916 18.6504 19.2073 17.0843 20.1252C15.4687 21.07 13.6253 21.5545 11.754 21.5261H2.05011V29.9999H0V-8.14077e-05H11.7198ZM11.7198 19.5102C12.8614 19.5472 13.9986 19.3512 15.0619 18.9341C16.1252 18.517 17.0924 17.8876 17.9043 17.0842C18.7557 16.2712 19.4268 15.2883 19.8741 14.1994C20.3215 13.1105 20.5351 11.9398 20.5011 10.763C20.5178 9.61703 20.2989 8.47985 19.8581 7.42191C19.4173 6.36397 18.7639 5.40781 17.9385 4.61267C17.1342 3.7804 16.1667 3.12319 15.0967 2.68223C14.0266 2.24126 12.877 2.02603 11.7198 2.05003H2.05011V19.5102H11.7198Z" fill="white"/>
<path d="M41.754 0C44.2825 6.83371 48.0068 16.6743 53.0296 30H50.9795L48.5535 23.6105H34.8861L32.4943 30H30.4442L40.6948 2.66515C40.6948 2.46014 40.8998 2.18679 41.0364 1.77677C41.1731 1.36674 41.4806 0.820046 41.754 0ZM35.7062 21.5262H47.836L41.754 5.4328C40.4328 9.03189 38.4169 14.3964 35.7062 21.5262Z" fill="white"/>
<path d="M63.9294 3.1093C64.2193 2.48352 64.6318 1.92223 65.1424 1.45859C65.6529 0.994958 66.2513 0.638395 66.9021 0.409983C67.4776 0.178943 68.0928 0.0628632 68.713 0.0682976C69.4645 0.0711005 70.2038 0.258856 70.8656 0.614995L70.2164 2.01591L70.0456 2.49427C69.254 2.18881 68.377 2.18881 67.5854 2.49427C66.8111 2.78984 66.1848 3.3793 65.8428 4.13436C65.6743 4.51655 65.5873 4.92965 65.5873 5.34734C65.5873 5.76503 65.6743 6.17813 65.8428 6.56033C65.9837 6.951 66.2014 7.3095 66.4831 7.61467C66.7648 7.91983 67.1047 8.16547 67.4829 8.33709L69.5672 9.22547L70.2847 9.49882C71.1818 9.95698 72.0291 10.5066 72.8132 11.1389C74.9064 13.0311 76.2114 15.6412 76.4692 18.451C76.4692 18.7585 76.4692 19.066 76.4692 19.3394C76.464 20.8999 76.114 22.4401 75.4442 23.8496C74.7079 25.544 73.5273 27.0079 72.0273 28.0865C70.5637 29.1321 68.8593 29.7903 67.0729 30C66.6522 30.0338 66.2294 30.0338 65.8087 30C64.2268 29.9578 62.6697 29.5975 61.2301 28.9407L61.8793 27.574L62.1185 27.0956C63.1173 27.568 64.2016 27.8327 65.3058 27.8739C66.4099 27.915 67.5109 27.7316 68.5421 27.3348C69.6284 26.9567 70.6282 26.3656 71.4831 25.5961C72.338 24.8267 73.0308 23.8944 73.5208 22.8539C74.0108 21.8133 74.2883 20.6855 74.337 19.5363C74.3856 18.3872 74.2044 17.2399 73.8041 16.1617C73.4207 15.0758 72.82 14.0795 72.0386 13.2335C71.2573 12.3875 70.3117 11.7097 69.2597 11.2414L67.1754 10.2505H66.4579C65.8374 9.96734 65.2811 9.56075 64.8229 9.05555C64.3647 8.55035 64.0142 7.95712 63.7927 7.31203C63.5191 6.64118 63.3899 5.92022 63.4135 5.19611C63.437 4.472 63.6128 3.76097 63.9294 3.1093Z" fill="white"/>
<path d="M87.3007 3.10941C87.5883 2.48798 87.9961 1.92956 88.5004 1.4663C89.0047 1.00304 89.5956 0.644089 90.2392 0.410096C90.8155 0.181554 91.4302 0.0655673 92.0501 0.0684104C92.8017 0.0712133 93.5409 0.258969 94.2027 0.615108L93.5877 2.01602L93.3827 2.49438C92.5911 2.18892 91.7142 2.18892 90.9226 2.49438C90.1482 2.78995 89.5219 3.37941 89.18 4.13447C89.0193 4.51868 88.9365 4.93099 88.9365 5.34745C88.9365 5.76392 89.0193 6.17623 89.18 6.56044C89.3208 6.95112 89.5385 7.30962 89.8202 7.61478C90.1019 7.91994 90.4419 8.16558 90.82 8.3372L92.9043 9.22559L93.6219 9.49894C94.5236 9.94902 95.3717 10.4992 96.1503 11.139C98.2435 13.0312 99.5486 15.6413 99.8064 18.4511C99.8228 18.747 99.8228 19.0436 99.8064 19.3395C99.8071 21.0516 99.398 22.739 98.6134 24.2607C97.8287 25.7824 96.6913 27.0943 95.2961 28.0866C93.8198 29.1323 92.1044 29.7903 90.3075 30.0001C89.8868 30.0339 89.464 30.0339 89.0433 30.0001C88.4864 30.0522 87.9259 30.0522 87.369 30.0001C86.3608 29.856 85.381 29.5563 84.4647 29.1117L85.1139 27.7449L85.4214 27.0616C86.4226 27.5442 87.5117 27.8174 88.6221 27.8644C89.7326 27.9114 90.8409 27.7312 91.8793 27.3349C92.9655 26.9568 93.9653 26.3657 94.8202 25.5963C95.6751 24.8268 96.3679 23.8945 96.8579 22.854C97.348 21.8135 97.6254 20.6856 97.6741 19.5365C97.7227 18.3873 97.5416 17.24 97.1412 16.1618C96.7653 15.0772 96.1711 14.081 95.3954 13.2348C94.6197 12.3886 93.6789 11.7102 92.631 11.2415L90.5467 10.2506H89.8292C89.2001 9.97473 88.6353 9.57102 88.1706 9.06515C87.7059 8.55928 87.3515 7.96231 87.1298 7.31215C86.8528 6.64091 86.7246 5.91759 86.7541 5.19204C86.7836 4.46648 86.9701 3.75595 87.3007 3.10941Z" fill="white"/>
<path d="M109.749 0V30H107.699V0H109.749Z" fill="white"/>
<path d="M129.02 24.533C130.558 20.5011 133.633 12.2665 138.212 0H140.262C138.394 4.98861 134.647 14.9886 129.02 30C126.424 23.303 122.768 13.3257 117.745 0H119.795L129.02 24.533Z" fill="white"/>
<path d="M170.843 0V2.05011H150.342V21.5262H159.567V23.6105H150.342V27.9499H170.843V30H148.257V0H170.843Z" fill="white"/>
<path d="M191.891 0V30H189.841V0H191.891Z" fill="white"/>
<path d="M220.353 24.2255V0H222.403V30L201.902 5.84282V30H199.852V0C204.431 5.39863 211.264 13.4738 220.353 24.2255Z" fill="white"/>
<path d="M245.399 27.9499C247.126 27.9668 248.838 27.6174 250.421 26.9248C251.957 26.263 253.359 25.3249 254.556 24.1572L254.897 24.4989L255.991 25.5922C254.619 26.9709 252.995 28.0729 251.207 28.8383C249.368 29.6095 247.393 30.0046 245.399 30C243.975 30.0066 242.558 29.7993 241.196 29.385C239.884 29.0154 238.63 28.4633 237.472 27.7449C235.345 26.4096 233.583 24.566 232.346 22.3804C231.046 20.1273 230.374 17.567 230.399 14.9658C230.374 12.3863 231.047 9.84815 232.346 7.61958C233.583 5.43393 235.345 3.5904 237.472 2.25512C238.63 1.53672 239.884 0.984625 241.196 0.615024C244.496 -0.362087 248.033 -0.168961 251.207 1.16172C253.017 1.96515 254.644 3.12758 255.991 4.57858L255.615 4.92026L254.556 6.01366C253.376 4.77252 251.974 3.76414 250.421 3.04099C248.831 2.37527 247.123 2.03821 245.399 2.0501C243.214 2.05091 241.069 2.62847 239.18 3.72436C237.29 4.78951 235.703 6.31814 234.567 8.16628C233.945 9.16683 233.463 10.2474 233.132 11.3781C232.45 13.7329 232.45 16.233 233.132 18.5877C233.462 19.7293 233.945 20.8211 234.567 21.8337C235.703 23.6818 237.29 25.2105 239.18 26.2756C241.069 27.3715 243.214 27.9491 245.399 27.9499Z" fill="white"/>
<path d="M279.021 -0.000116444C280.433 -0.00182949 281.837 0.205426 283.189 0.614918C284.541 0.962969 285.832 1.51608 287.016 2.25501C289.158 3.57165 290.924 5.41955 292.141 7.61947C293.372 9.86599 293.962 12.4068 293.85 14.9657C293.856 16.3895 293.649 17.8062 293.235 19.1684C292.872 20.483 292.319 21.7376 291.595 22.8928C290.278 25.035 288.43 26.8005 286.23 28.0181C284.011 29.3438 281.469 30.0297 278.884 29.9999C276.277 30.0334 273.712 29.3477 271.469 28.0181C269.269 26.8005 267.421 25.035 266.105 22.8928C265.38 21.7376 264.828 20.483 264.465 19.1684C263.645 16.4382 263.645 13.5274 264.465 10.7972C264.834 9.48502 265.386 8.23131 266.105 7.07278C267.478 4.92887 269.37 3.16606 271.606 1.94749C273.858 0.644295 276.419 -0.0284624 279.021 -0.000116444ZM279.021 27.9498C280.178 27.9361 281.327 27.7636 282.437 27.4372C283.568 27.1068 284.649 26.624 285.649 26.0022C287.623 24.9133 289.273 23.3219 290.433 21.3894C291.563 19.4394 292.141 17.2191 292.107 14.9657C292.093 13.8087 291.921 12.659 291.595 11.5489C291.291 10.4143 290.818 9.33162 290.194 8.33701C289.035 6.49577 287.438 4.96981 285.547 3.8951C283.588 2.67896 281.326 2.03948 279.021 2.05C277.795 2.04532 276.575 2.21795 275.399 2.56253C274.253 2.8661 273.159 3.33823 272.153 3.96344C270.311 5.12235 268.785 6.71874 267.711 8.61036C266.585 10.5371 266.006 12.7344 266.036 14.9657C266.021 16.1897 266.182 17.4096 266.515 18.5876C266.833 19.7278 267.304 20.8197 267.916 21.8336C269.07 23.6663 270.654 25.1907 272.528 26.2755C274.502 27.4077 276.745 27.9861 279.021 27.9498Z" fill="white"/>
<path d="M316.982 18.3485L331.982 0V30H329.932V5.74032L316.982 21.5945L304.1 5.74032V30H302.05V0L316.982 18.3485Z" fill="white"/>
<path d="M362.46 0V2.05011H341.959V21.5262H351.185V23.6105H341.959V27.9499H362.46V30H339.977V0H362.46Z" fill="white"/>
</g>
<defs>
<clipPath id="clip0_102_58">
<rect width="362.494" height="30" fill="white"/>
</clipPath>
</defs>
</svg>
