<svg width="222" height="30" viewBox="0 0 222 30" fill="none" xmlns="http://www.w3.org/2000/svg">
<g clip-path="url(#clip0_102_8)">
<path d="M22.4141 30C21.4618 27.3349 19.6251 22.4829 17.0061 14.9658C16.0198 17.4943 14.1491 22.4829 11.3601 30C8.77517 23.303 4.98847 13.303 0 0H2.04074C4.08148 5.4328 7.14258 13.6674 11.19 24.533L15.7817 12.2665L11.19 0H13.2308C14.0131 2.11845 15.2375 5.29613 17.0061 9.53303C17.7544 7.41458 18.9448 4.2369 20.4074 0H22.4481L17.8224 12.2665C18.8428 15 20.3394 19.1002 22.4141 24.533C24.4548 19.1116 27.5046 10.9339 31.5634 0H33.6041C31.0872 6.67426 27.3572 16.6743 22.4141 30Z" fill="white"/>
<path d="M43.6038 0V21.5262H61.9364V0H63.9771V30H61.9364V23.6105H43.6038V30H41.563V0H43.6038Z" fill="white"/>
<path d="M73.9767 0V30H71.936V0H73.9767Z" fill="white"/>
<path d="M104.35 2.05011H94.146V30H92.0713V2.05011H81.8676V0H104.282L104.35 2.05011Z" fill="white"/>
<path d="M134.689 0V2.05011H114.281V21.5262H123.465V23.6105H114.281V27.9499H134.689V30H112.241V0H134.689Z" fill="white"/>
<path d="M144.722 0V27.9499H157.647V30H142.852V0H144.722Z" fill="white"/>
<path d="M167.647 0V30H165.606V0H167.647Z" fill="white"/>
<path d="M178.531 3.1093C178.819 2.48352 179.23 1.92223 179.738 1.45859C180.246 0.994957 180.842 0.638394 181.49 0.409982C182.051 0.179035 182.652 0.0628724 183.258 0.0682968C184.017 0.0750441 184.763 0.262404 185.435 0.614994L184.789 2.0159L184.585 2.49426C184.197 2.3326 183.781 2.24938 183.36 2.24938C182.94 2.24938 182.524 2.3326 182.136 2.49426C181.365 2.78984 180.742 3.3793 180.401 4.13436C180.241 4.51857 180.159 4.93088 180.159 5.34734C180.159 5.7638 180.241 6.17611 180.401 6.56032C180.541 6.951 180.758 7.3095 181.039 7.61467C181.319 7.91983 181.657 8.16547 182.034 8.33709L184.109 9.22547L184.823 9.49882C185.72 9.9489 186.565 10.4991 187.34 11.1389C188.076 11.808 188.727 12.5654 189.278 13.394C190.245 14.9163 190.829 16.6518 190.979 18.451C190.995 18.7469 190.995 19.0435 190.979 19.3394C190.97 20.8957 190.633 22.4326 189.993 23.8496C189.224 25.5178 188.041 26.9595 186.558 28.0365C185.075 29.1135 183.342 29.7896 181.524 30C181.105 30.0338 180.684 30.0338 180.265 30C179.711 30.0521 179.153 30.0521 178.599 30C177.596 29.8497 176.622 29.5503 175.708 29.1116L176.354 27.7448L176.592 27.2665C177.64 27.799 178.79 28.099 179.963 28.1462C181.137 28.1933 182.307 27.9865 183.394 27.5398C184.476 27.159 185.469 26.5634 186.317 25.7885C187.164 25.0136 187.847 24.0754 188.326 23.0296C188.823 21.997 189.104 20.8727 189.151 19.7265C189.198 18.5804 189.01 17.4368 188.598 16.3667C188.224 15.2821 187.633 14.2859 186.86 13.4397C186.088 12.5935 185.152 11.9151 184.109 11.4464L181.762 10.2505H181.047C180.421 9.97461 179.859 9.5709 179.396 9.06503C178.934 8.55917 178.581 7.9622 178.36 7.31203C178.085 6.6408 177.957 5.91747 177.987 5.19192C178.016 4.46637 178.201 3.75584 178.531 3.1093Z" fill="white"/>
<path d="M221.25 2.05011H211.046V30H208.972V2.05011H198.768V0H221.182L221.25 2.05011Z" fill="white"/>
</g>
<defs>
<clipPath id="clip0_102_8">
<rect width="221.25" height="30" fill="white"/>
</clipPath>
</defs>
</svg>
